<svg width="104" height="13" viewBox="0 0 104 13" fill="none" xmlns="http://www.w3.org/2000/svg">
<path d="M5.71484 1.11914C6.32422 1.11914 6.92188 1.18945 7.50781 1.33008C8.10547 1.4707 8.67383 1.68164 9.21289 1.96289C9.75195 2.23242 10.2266 2.5957 10.6367 3.05273C11.0586 3.50977 11.2871 4.05469 11.3223 4.6875V5.42578V11.0332C11.252 11.7363 10.8652 12.1172 10.1621 12.1758C9.83398 12.1758 9.54688 12.0703 9.30078 11.8594C9.06641 11.6367 8.94922 11.3613 8.94922 11.0332V5.23242C8.92578 4.86914 8.78516 4.57031 8.52734 4.33594C8.28125 4.08984 8 3.89648 7.68359 3.75586C7.37891 3.61523 7.05664 3.50977 6.7168 3.43945C6.38867 3.36914 6.05469 3.33398 5.71484 3.33398C5.375 3.33398 5.03516 3.36914 4.69531 3.43945C4.36719 3.50977 4.04492 3.61523 3.72852 3.75586C3.42383 3.89648 3.14258 4.08984 2.88477 4.33594C2.63867 4.57031 2.50391 4.86914 2.48047 5.23242V11.0332C2.42188 11.7363 2.04102 12.1172 1.33789 12.1758C1.00977 12.1758 0.722656 12.0703 0.476562 11.8594C0.242188 11.6367 0.125 11.3613 0.125 11.0332V5.42578V4.6875C0.160156 4.05469 0.382812 3.50977 0.792969 3.05273C1.20312 2.5957 1.67773 2.23242 2.2168 1.96289C2.75586 1.68164 3.31836 1.4707 3.9043 1.33008C4.50195 1.18945 5.10547 1.11914 5.71484 1.11914ZM17.1758 11.9648C16.1445 11.9297 15.3652 11.6895 14.8379 11.2441C14.3105 10.7871 13.9297 10.2773 13.6953 9.71484C13.4609 9.14062 13.3438 8.56055 13.3438 7.97461C13.3438 7.36523 13.4551 6.7793 13.6777 6.2168C13.9121 5.64258 14.293 5.13281 14.8203 4.6875C15.3594 4.23047 16.0391 3.99609 16.8594 3.98438H22.5547C23.375 3.99609 24.0488 4.23047 24.5762 4.6875C25.1152 5.13281 25.4961 5.64258 25.7188 6.2168C25.9531 6.7793 26.0703 7.36523 26.0703 7.97461C26.0703 8.56055 25.9531 9.14062 25.7188 9.71484C25.4844 10.2773 25.1035 10.7871 24.5762 11.2441C24.0488 11.6895 23.2695 11.9297 22.2383 11.9648H17.1758ZM16.7891 6.33984C16.5664 6.33984 16.373 6.43359 16.209 6.62109C16.0449 6.79688 15.9219 7.00781 15.8398 7.25391C15.7695 7.48828 15.7344 7.72266 15.7344 7.95703C15.7344 8.20312 15.7695 8.44922 15.8398 8.69531C15.9219 8.92969 16.0449 9.14062 16.209 9.32812C16.373 9.50391 16.5664 9.59766 16.7891 9.60938H22.625C22.8477 9.59766 23.041 9.50391 23.2051 9.32812C23.3691 9.14062 23.4863 8.92969 23.5566 8.69531C23.6387 8.44922 23.6797 8.20312 23.6797 7.95703C23.6797 7.72266 23.6387 7.48828 23.5566 7.25391C23.4863 7.00781 23.3691 6.79688 23.2051 6.62109C23.041 6.43359 22.8477 6.33984 22.625 6.33984H16.7891ZM31.9062 1.3125C32.2344 1.3125 32.5156 1.42383 32.75 1.64648C32.9844 1.85742 33.1074 2.12695 33.1191 2.45508V3.98438H39.0957C39.4238 3.98438 39.7051 4.0957 39.9395 4.31836C40.1621 4.55273 40.2734 4.83398 40.2734 5.16211C40.2734 5.49023 40.1562 5.77148 39.9219 6.00586C39.6992 6.22852 39.4238 6.33984 39.0957 6.33984H33.1191V6.69141C33.1074 7.17188 33.1367 7.61719 33.207 8.02734C33.2891 8.42578 33.4766 8.7832 33.7695 9.09961C34.0625 9.41602 34.4316 9.58594 34.877 9.60938H39.166C39.4941 9.62109 39.7637 9.74414 39.9746 9.97852C40.1973 10.2129 40.3086 10.4941 40.3086 10.8223C40.2969 11.1387 40.1797 11.4082 39.957 11.6309C39.7461 11.8418 39.4824 11.9531 39.166 11.9648H34.2793C33.459 11.918 32.7793 11.6426 32.2402 11.1387C31.7129 10.623 31.332 9.99609 31.0977 9.25781C30.875 8.51953 30.7578 7.73438 30.7461 6.90234V6.33984H28.7246C28.3965 6.33984 28.1211 6.22266 27.8984 5.98828C27.6641 5.76562 27.5469 5.49023 27.5469 5.16211C27.5469 4.83398 27.6582 4.55859 27.8809 4.33594C28.1152 4.10156 28.3965 3.98438 28.7246 3.98438H30.7461V2.45508C30.7578 2.13867 30.875 1.875 31.0977 1.66406C31.3203 1.44141 31.5898 1.32422 31.9062 1.3125ZM43.209 3.80859C43.5254 3.82031 43.7949 3.9375 44.0176 4.16016C44.2402 4.37109 44.3574 4.63477 44.3691 4.95117V11.0332C44.2988 11.7363 43.9121 12.1172 43.209 12.1758C42.8809 12.1758 42.5938 12.0703 42.3477 11.8594C42.1133 11.6367 41.9961 11.3613 41.9961 11.0332V4.95117C42.0078 4.62305 42.1309 4.35352 42.3652 4.14258C42.5996 3.91992 42.8809 3.80859 43.209 3.80859ZM41.7324 1.52344C41.7324 1.19531 41.873 0.914063 42.1543 0.679688C42.4355 0.445312 42.7754 0.328125 43.1738 0.328125C43.5723 0.328125 43.9121 0.445312 44.1934 0.679688C44.4746 0.914063 44.6152 1.19531 44.6152 1.52344C44.6152 1.86328 44.4746 2.15039 44.1934 2.38477C43.9121 2.61914 43.5723 2.73633 43.1738 2.73633C42.7754 2.73633 42.4355 2.61914 42.1543 2.38477C41.873 2.15039 41.7324 1.86328 41.7324 1.52344ZM50.3281 1.3125C50.6562 1.3125 50.9375 1.42383 51.1719 1.64648C51.4062 1.85742 51.5293 2.12695 51.541 2.45508V3.98438H57.5176C57.8457 3.98438 58.127 4.0957 58.3613 4.31836C58.584 4.55273 58.6953 4.83398 58.6953 5.16211C58.6953 5.49023 58.5781 5.77148 58.3438 6.00586C58.1211 6.22852 57.8457 6.33984 57.5176 6.33984H51.541V6.69141C51.5293 7.17188 51.5586 7.61719 51.6289 8.02734C51.7109 8.42578 51.8984 8.7832 52.1914 9.09961C52.4844 9.41602 52.8535 9.58594 53.2988 9.60938H57.5879C57.916 9.62109 58.1855 9.74414 58.3965 9.97852C58.6191 10.2129 58.7305 10.4941 58.7305 10.8223C58.7188 11.1387 58.6016 11.4082 58.3789 11.6309C58.168 11.8418 57.9043 11.9531 57.5879 11.9648H52.7012C51.8809 11.918 51.2012 11.6426 50.6621 11.1387C50.1348 10.623 49.7539 9.99609 49.5195 9.25781C49.2969 8.51953 49.1797 7.73438 49.168 6.90234V6.33984H47.1465C46.8184 6.33984 46.543 6.22266 46.3203 5.98828C46.0859 5.76562 45.9688 5.49023 45.9688 5.16211C45.9688 4.83398 46.0801 4.55859 46.3027 4.33594C46.5371 4.10156 46.8184 3.98438 47.1465 3.98438H49.168V2.45508C49.1797 2.13867 49.2969 1.875 49.5195 1.66406C49.7422 1.44141 50.0117 1.32422 50.3281 1.3125ZM70.2441 11.0332V6.79688C70.2441 6.50391 70.0918 6.35156 69.7871 6.33984H63.6348C63.4121 6.35156 63.2188 6.45117 63.0547 6.63867C62.8906 6.81445 62.7676 7.02539 62.6855 7.27148C62.6152 7.50586 62.5801 7.74609 62.5801 7.99219C62.5801 8.22656 62.6152 8.4668 62.6855 8.71289C62.7676 8.94727 62.8906 9.1582 63.0547 9.3457C63.2188 9.52148 63.4121 9.60938 63.6348 9.60938H68.1348C68.4629 9.60938 68.7383 9.72656 68.9609 9.96094C69.1953 10.1836 69.3125 10.459 69.3125 10.7871C69.3125 11.1152 69.1953 11.3906 68.9609 11.6133C68.7383 11.8477 68.4629 11.9648 68.1348 11.9648H63.7051C62.8848 11.9531 62.2051 11.7246 61.666 11.2793C61.1387 10.8223 60.7578 10.3125 60.5234 9.75C60.3008 9.17578 60.1895 8.58398 60.1895 7.97461C60.1895 7.38867 60.3066 6.81445 60.541 6.25195C60.7754 5.67773 61.1562 5.16797 61.6836 4.72266C62.2109 4.26562 62.9902 4.01953 64.0215 3.98438H71.4043C71.7324 3.98438 72.0137 4.0957 72.248 4.31836C72.4824 4.5293 72.6055 4.79883 72.6172 5.12695V11.0332C72.6172 11.3613 72.4941 11.6367 72.248 11.8594C72.0137 12.0703 71.7324 12.1758 71.4043 12.1758C70.7012 12.1172 70.3145 11.7363 70.2441 11.0332ZM80.4922 3.7207C81.1016 3.7207 81.6992 3.79102 82.2852 3.93164C82.8828 4.07227 83.4512 4.2832 83.9902 4.56445C84.5293 4.83398 85.0039 5.19727 85.4141 5.6543C85.8359 6.11133 86.0645 6.65625 86.0996 7.28906V8.02734V11.0332C86.0293 11.7363 85.6426 12.1172 84.9395 12.1758C84.6113 12.1758 84.3242 12.0703 84.0781 11.8594C83.8438 11.6367 83.7266 11.3613 83.7266 11.0332V10.2598V7.83398C83.7031 7.4707 83.5625 7.17188 83.3047 6.9375C83.0586 6.69141 82.7773 6.49805 82.4609 6.35742C82.1562 6.2168 81.834 6.11133 81.4941 6.04102C81.166 5.9707 80.832 5.93555 80.4922 5.93555C80.1523 5.93555 79.8125 5.9707 79.4727 6.04102C79.1445 6.11133 78.8223 6.2168 78.5059 6.35742C78.2012 6.49805 77.9199 6.69141 77.6621 6.9375C77.416 7.17188 77.2812 7.4707 77.2578 7.83398V10.2598V11.0332C77.1992 11.7363 76.8184 12.1172 76.1152 12.1758C75.7871 12.1758 75.5 12.0703 75.2539 11.8594C75.0195 11.6367 74.9023 11.3613 74.9023 11.0332V8.02734V7.28906C74.9375 6.65625 75.1602 6.11133 75.5703 5.6543C75.9805 5.19727 76.4551 4.83398 76.9941 4.56445C77.5332 4.2832 78.0957 4.07227 78.6816 3.93164C79.2793 3.79102 79.8828 3.7207 80.4922 3.7207ZM89.5449 3.80859C89.8613 3.82031 90.1309 3.9375 90.3535 4.16016C90.5762 4.37109 90.6934 4.63477 90.7051 4.95117V11.0332C90.6348 11.7363 90.248 12.1172 89.5449 12.1758C89.2168 12.1758 88.9297 12.0703 88.6836 11.8594C88.4492 11.6367 88.332 11.3613 88.332 11.0332V4.95117C88.3438 4.62305 88.4668 4.35352 88.7012 4.14258C88.9355 3.91992 89.2168 3.80859 89.5449 3.80859ZM88.0684 1.52344C88.0684 1.19531 88.209 0.914063 88.4902 0.679688C88.7715 0.445312 89.1113 0.328125 89.5098 0.328125C89.9082 0.328125 90.248 0.445312 90.5293 0.679688C90.8105 0.914063 90.9512 1.19531 90.9512 1.52344C90.9512 1.86328 90.8105 2.15039 90.5293 2.38477C90.248 2.61914 89.9082 2.73633 89.5098 2.73633C89.1113 2.73633 88.7715 2.61914 88.4902 2.38477C88.209 2.15039 88.0684 1.86328 88.0684 1.52344ZM96.418 11.9648C95.3867 11.9297 94.6074 11.6895 94.0801 11.2441C93.5527 10.7871 93.1719 10.2773 92.9375 9.71484C92.7031 9.14062 92.5859 8.56055 92.5859 7.97461C92.5859 7.36523 92.6973 6.7793 92.9199 6.2168C93.1543 5.64258 93.5352 5.13281 94.0625 4.6875C94.6016 4.23047 95.2812 3.99609 96.1016 3.98438H102.781C103.109 3.98438 103.385 4.10156 103.607 4.33594C103.842 4.55859 103.959 4.83398 103.959 5.16211C103.959 5.49023 103.842 5.77148 103.607 6.00586C103.385 6.22852 103.109 6.33984 102.781 6.33984H96.0312C95.8086 6.33984 95.6152 6.43359 95.4512 6.62109C95.2871 6.79688 95.1641 7.00781 95.082 7.25391C95.0117 7.48828 94.9766 7.72266 94.9766 7.95703C94.9766 8.20312 95.0117 8.44922 95.082 8.69531C95.1641 8.92969 95.2871 9.14062 95.4512 9.32812C95.6152 9.50391 95.8086 9.59766 96.0312 9.60938H102.781C103.109 9.60938 103.385 9.72656 103.607 9.96094C103.842 10.1836 103.959 10.459 103.959 10.7871C103.959 11.1152 103.842 11.3906 103.607 11.6133C103.385 11.8477 103.109 11.9648 102.781 11.9648H96.418Z" fill="white"/>
</svg>
